<svg width="17" height="12" viewBox="0 0 17 12" fill="none" xmlns="http://www.w3.org/2000/svg">
<path d="M16.9188 5.48901C16.7841 5.26491 13.5612 0 8.5 0C3.43882 0 0.215879 5.26491 0.0811961 5.48901C-0.0270654 5.66904 -0.0270654 5.89412 0.0811961 6.07415C0.215879 6.29824 3.43882 11.5632 8.5 11.5632C13.5612 11.5632 16.7841 6.29824 16.9188 6.07415C17.0271 5.89412 17.0271 5.66904 16.9188 5.48901ZM8.5 10.4275C4.72031 10.4275 1.97585 6.84212 1.24663 5.78109C1.97448 4.71876 4.71108 1.13569 8.5 1.13569C12.2797 1.13569 15.0242 4.72111 15.7534 5.78215C15.0255 6.84439 12.2889 10.4275 8.5 10.4275Z" fill="white"/>
<path d="M8.50001 1.95506C6.39013 1.95506 4.67361 3.67165 4.67361 5.78154C4.67361 7.89135 6.39013 9.60778 8.50001 9.60778C10.6098 9.60778 12.3263 7.89135 12.3263 5.78154C12.3263 3.67165 10.6099 1.95506 8.50001 1.95506ZM8.50001 8.47217C7.0163 8.47217 5.80922 7.26517 5.80922 5.78154C5.80922 4.29775 7.0163 3.09067 8.50001 3.09067C9.98373 3.09067 11.1907 4.29775 11.1907 5.78154C11.1907 7.26517 9.98373 8.47217 8.50001 8.47217Z" fill="white"/>
<path d="M8.49999 4.31555C7.68977 4.31555 7.03339 4.97186 7.03339 5.78155C7.03339 6.59116 7.68977 7.24747 8.49999 7.24747C9.31028 7.24747 9.96667 6.59116 9.96667 5.78155C9.96667 4.97186 9.31028 4.31555 8.49999 4.31555Z" fill="white"/>
</svg>
