<svg width="18" height="15" viewBox="0 0 18 15" fill="none" xmlns="http://www.w3.org/2000/svg">
<path d="M6.44247 0.00380429C6.41031 0.0063695 6.31254 0.0140651 6.22378 0.0217607C4.71617 0.151304 3.32819 0.79517 2.31325 1.83793C1.89132 2.27145 1.57359 2.71523 1.31632 3.23211C0.593386 4.68017 0.589527 6.33729 1.30474 7.7892C1.9685 9.13722 3.21241 10.2005 4.71874 10.7084C5.46612 10.9611 6.22507 11.0675 7.04448 11.0368C8.89427 10.9675 10.6077 10.1005 11.6985 8.67933C12.2774 7.92644 12.6286 7.06453 12.7533 6.09488C12.7868 5.84093 12.7868 5.20732 12.7546 4.95337C12.644 4.08376 12.37 3.34627 11.8915 2.63186C11.5583 2.13292 11.0811 1.63143 10.582 1.25562C9.65708 0.560454 8.60484 0.152586 7.41367 0.0281737C7.23358 0.0089347 6.57367 -0.00773913 6.44247 0.00380429ZM7.14996 1.65067C7.90377 1.7148 8.6267 1.96234 9.22744 2.36251C9.47442 2.52668 9.62749 2.64853 9.82559 2.83836C10.3967 3.38731 10.7659 4.03631 10.9241 4.76739C10.9807 5.02904 11 5.21502 11.0013 5.5113C11.0013 5.80245 10.9885 5.95123 10.937 6.21032C10.6206 7.82511 9.20685 9.09746 7.43939 9.35782C7.20399 9.39245 7.06892 9.40143 6.78335 9.40271C6.37557 9.40271 6.07071 9.3668 5.69509 9.27445C4.19005 8.90635 3.00917 7.78664 2.66057 6.39629C2.58081 6.07564 2.5538 5.85888 2.55509 5.51771C2.55509 4.84435 2.73132 4.21844 3.07992 3.64383C3.76298 2.51899 4.99917 1.77508 6.38844 1.65195C6.55438 1.63656 6.98145 1.63656 7.14996 1.65067Z" fill="black"/>
<path d="M12.1848 9.15132C11.8491 9.60792 11.2818 10.1261 10.82 10.398C10.7685 10.4275 10.7261 10.457 10.7261 10.4621C10.7261 10.4686 11.3268 11.0201 12.0613 11.6883C12.7945 12.3565 13.9124 13.3749 14.544 13.9495C15.1756 14.5254 15.6966 14.9974 15.703 15C15.7158 15.0051 17.2376 13.6173 17.2325 13.6045C17.2299 13.5968 12.4099 9.20519 12.2748 9.08719C12.2491 9.06538 12.2465 9.06667 12.1848 9.15132Z" fill="black"/>
</svg>
