<svg width="22" height="24" viewBox="0 0 22 24" fill="none" xmlns="http://www.w3.org/2000/svg">
<path d="M20.1322 1.13627C20.78 1.13627 21.3063 1.99754 21.3063 3.05658V16.3019C21.3063 17.3609 20.7793 18.2223 20.1322 18.2223H9.84771C9.75467 18.2223 9.66232 18.2529 9.57691 18.312L4.94399 21.5276L4.26628 18.9142C4.15724 18.495 3.90589 18.2223 3.62675 18.2223H1.86787C1.22072 18.2223 0.694354 17.3609 0.694354 16.302V3.05652C0.694354 1.99754 1.22068 1.13622 1.86787 1.13622L20.1322 1.13627ZM20.1322 0H1.86787C0.836029 0 0 1.36916 0 3.05652V16.3019C0 17.9904 0.836029 19.3584 1.86787 19.3584H3.62603L4.57454 23.0172L9.84696 19.3584H20.1314C21.1633 19.3584 22 17.9893 22 16.3019V3.05652C22.0008 1.36916 21.164 0 20.1322 0Z" fill="black"/>
</svg>
